<?xml version="1.0" encoding="UTF-8" standalone="no"?>
<!-- Created with Inkscape (http://www.inkscape.org/) -->

<svg
   xmlns:dc="http://purl.org/dc/elements/1.1/"
   xmlns:cc="http://creativecommons.org/ns#"
   xmlns:rdf="http://www.w3.org/1999/02/22-rdf-syntax-ns#"
   xmlns:svg="http://www.w3.org/2000/svg"
   xmlns="http://www.w3.org/2000/svg"
   xmlns:sodipodi="http://sodipodi.sourceforge.net/DTD/sodipodi-0.dtd"
   xmlns:inkscape="http://www.inkscape.org/namespaces/inkscape"
   width="50.524448mm"
   height="47.682476mm"
   viewBox="0 0 179.02364 168.95365"
   id="svg2"
   version="1.1"
   inkscape:version="0.91 r13725"
   sodipodi:docname="regions.svg">
  <defs
     id="defs4">
    <marker
       inkscape:stockid="Arrow1Send"
       orient="auto"
       refY="0.0"
       refX="0.0"
       id="marker5997"
       style="overflow:visible;"
       inkscape:isstock="true">
      <path
         id="path5999"
         d="M 0.0,0.0 L 5.0,-5.0 L -12.5,0.0 L 5.0,5.0 L 0.0,0.0 z "
         style="fill-rule:evenodd;stroke:#000000;stroke-width:1pt;stroke-opacity:1;fill:#000000;fill-opacity:1"
         transform="scale(0.2) rotate(180) translate(6,0)" />
    </marker>
    <marker
       inkscape:stockid="Arrow1Send"
       orient="auto"
       refY="0.0"
       refX="0.0"
       id="marker5822"
       style="overflow:visible;"
       inkscape:isstock="true">
      <path
         id="path5824"
         d="M 0.0,0.0 L 5.0,-5.0 L -12.5,0.0 L 5.0,5.0 L 0.0,0.0 z "
         style="fill-rule:evenodd;stroke:#000000;stroke-width:1pt;stroke-opacity:1;fill:#000000;fill-opacity:1"
         transform="scale(0.2) rotate(180) translate(6,0)" />
    </marker>
    <marker
       inkscape:stockid="Arrow1Send"
       orient="auto"
       refY="0.0"
       refX="0.0"
       id="Arrow1Send"
       style="overflow:visible;"
       inkscape:isstock="true">
      <path
         id="path4318"
         d="M 0.0,0.0 L 5.0,-5.0 L -12.5,0.0 L 5.0,5.0 L 0.0,0.0 z "
         style="fill-rule:evenodd;stroke:#000000;stroke-width:1pt;stroke-opacity:1;fill:#000000;fill-opacity:1"
         transform="scale(0.2) rotate(180) translate(6,0)" />
    </marker>
    <marker
       inkscape:stockid="EmptyDiamondS"
       orient="auto"
       refY="0.0"
       refX="0.0"
       id="EmptyDiamondS"
       style="overflow:visible"
       inkscape:isstock="true">
      <path
         id="path4415"
         d="M 0,-7.0710768 L -7.0710894,0 L 0,7.0710589 L 7.0710462,0 L 0,-7.0710768 z "
         style="fill-rule:evenodd;fill:#ffffff;stroke:#000000;stroke-width:1pt;stroke-opacity:1"
         transform="scale(0.2)" />
    </marker>
    <marker
       style="overflow:visible"
       inkscape:stockid="InfiniteLineStart"
       id="InfiniteLineStart"
       refX="0"
       refY="0"
       orient="auto"
       inkscape:isstock="true">
      <g
         id="g4547"
         style="fill:#000000;stroke:#000000;stroke-opacity:1;fill-opacity:1"
         transform="translate(-13,0)">
        <circle
           id="circle4549"
           r="0.8"
           cy="0"
           cx="3"
           style="stroke:#000000;stroke-opacity:1;fill:#000000;fill-opacity:1" />
        <circle
           id="circle4551"
           r="0.8"
           cy="0"
           cx="6.5"
           style="stroke:#000000;stroke-opacity:1;fill:#000000;fill-opacity:1" />
        <circle
           id="circle4553"
           r="0.8"
           cy="0"
           cx="10"
           style="stroke:#000000;stroke-opacity:1;fill:#000000;fill-opacity:1" />
      </g>
    </marker>
    <marker
       style="overflow:visible"
       inkscape:stockid="InfiniteLineEnd"
       id="marker5002"
       refX="0"
       refY="0"
       orient="auto"
       inkscape:isstock="true">
      <g
         id="g5004"
         style="fill:#000000;stroke:#000000;stroke-opacity:1;fill-opacity:1">
        <circle
           id="circle5006"
           r="0.8"
           cy="0"
           cx="3"
           style="stroke:#000000;stroke-opacity:1;fill:#000000;fill-opacity:1" />
        <circle
           id="circle5008"
           r="0.8"
           cy="0"
           cx="6.5"
           style="stroke:#000000;stroke-opacity:1;fill:#000000;fill-opacity:1" />
        <circle
           id="circle5010"
           r="0.8"
           cy="0"
           cx="10"
           style="stroke:#000000;stroke-opacity:1;fill:#000000;fill-opacity:1" />
      </g>
    </marker>
    <marker
       inkscape:stockid="Arrow2Sstart"
       orient="auto"
       refY="0.0"
       refX="0.0"
       id="Arrow2Sstart"
       style="overflow:visible"
       inkscape:isstock="true">
      <path
         id="path4333"
         style="fill-rule:evenodd;stroke-width:0.625;stroke-linejoin:round;stroke:#000000;stroke-opacity:1;fill:#000000;fill-opacity:1"
         d="M 8.7185878,4.0337352 L -2.2072895,0.016013256 L 8.7185884,-4.0017078 C 6.9730900,-1.6296469 6.9831476,1.6157441 8.7185878,4.0337352 z "
         transform="scale(0.3) translate(-2.3,0)" />
    </marker>
    <marker
       style="overflow:visible"
       inkscape:stockid="InfiniteLineEnd"
       id="InfiniteLineEnd"
       refX="0"
       refY="0"
       orient="auto"
       inkscape:isstock="true">
      <g
         id="g4538"
         style="fill:#000000;stroke:#000000;stroke-opacity:1;fill-opacity:1">
        <circle
           id="circle4540"
           r="0.8"
           cy="0"
           cx="3"
           style="stroke:#000000;stroke-opacity:1;fill:#000000;fill-opacity:1" />
        <circle
           id="circle4542"
           r="0.8"
           cy="0"
           cx="6.5"
           style="stroke:#000000;stroke-opacity:1;fill:#000000;fill-opacity:1" />
        <circle
           id="circle4544"
           r="0.8"
           cy="0"
           cx="10"
           style="stroke:#000000;stroke-opacity:1;fill:#000000;fill-opacity:1" />
      </g>
    </marker>
    <marker
       inkscape:stockid="EmptyDiamondSstart"
       orient="auto"
       refY="0.0"
       refX="0.0"
       id="EmptyDiamondSstart"
       style="overflow:visible"
       inkscape:isstock="true">
      <path
         id="path4424"
         d="M 0,-7.0710768 L -7.0710894,0 L 0,7.0710589 L 7.0710462,0 L 0,-7.0710768 z "
         style="fill-rule:evenodd;fill:#ffffff;stroke:#000000;stroke-width:1pt;stroke-opacity:1"
         transform="scale(0.2) translate(6,0)" />
    </marker>
    <marker
       inkscape:stockid="DiamondSstart"
       orient="auto"
       refY="0.0"
       refX="0.0"
       id="DiamondSstart"
       style="overflow:visible"
       inkscape:isstock="true">
      <path
         id="path4397"
         d="M 0,-7.0710768 L -7.0710894,0 L 0,7.0710589 L 7.0710462,0 L 0,-7.0710768 z "
         style="fill-rule:evenodd;stroke:#000000;stroke-width:1pt;stroke-opacity:1;fill:#000000;fill-opacity:1"
         transform="scale(0.2) translate(6,0)" />
    </marker>
    <marker
       inkscape:stockid="Arrow1Mend"
       orient="auto"
       refY="0"
       refX="0"
       id="marker6097"
       style="overflow:visible"
       inkscape:isstock="true">
      <path
         id="path6099"
         d="M 0,0 5,-5 -12.5,0 5,5 0,0 Z"
         style="fill:#000000;fill-opacity:1;fill-rule:evenodd;stroke:#000000;stroke-width:1pt;stroke-opacity:1"
         transform="matrix(-0.4,0,0,-0.4,-4,0)"
         inkscape:connector-curvature="0" />
    </marker>
    <marker
       inkscape:isstock="true"
       style="overflow:visible"
       id="marker5873"
       refX="0"
       refY="0"
       orient="auto"
       inkscape:stockid="Arrow1Mend"
       inkscape:collect="always">
      <path
         transform="matrix(-0.4,0,0,-0.4,-4,0)"
         style="fill:#000000;fill-opacity:1;fill-rule:evenodd;stroke:#000000;stroke-width:1pt;stroke-opacity:1"
         d="M 0,0 5,-5 -12.5,0 5,5 0,0 Z"
         id="path5875"
         inkscape:connector-curvature="0" />
    </marker>
    <marker
       inkscape:stockid="TriangleOutM"
       orient="auto"
       refY="0"
       refX="0"
       id="TriangleOutM"
       style="overflow:visible"
       inkscape:isstock="true">
      <path
         id="path4327"
         d="m 5.77,0 -8.65,5 0,-10 8.65,5 z"
         style="fill:#000000;fill-opacity:1;fill-rule:evenodd;stroke:#000000;stroke-width:1pt;stroke-opacity:1"
         transform="scale(0.4,0.4)"
         inkscape:connector-curvature="0" />
    </marker>
    <marker
       inkscape:stockid="Arrow2Lend"
       orient="auto"
       refY="0"
       refX="0"
       id="Arrow2Lend"
       style="overflow:visible"
       inkscape:isstock="true">
      <path
         id="path4203"
         style="fill:#000000;fill-opacity:1;fill-rule:evenodd;stroke:#000000;stroke-width:0.625;stroke-linejoin:round;stroke-opacity:1"
         d="M 8.7185878,4.0337352 -2.2072895,0.01601326 8.7185884,-4.0017078 c -1.7454984,2.3720609 -1.7354408,5.6174519 -6e-7,8.035443 z"
         transform="matrix(-1.1,0,0,-1.1,-1.1,0)"
         inkscape:connector-curvature="0" />
    </marker>
    <marker
       inkscape:stockid="Arrow1Mend"
       orient="auto"
       refY="0"
       refX="0"
       id="marker5517"
       style="overflow:visible"
       inkscape:isstock="true">
      <path
         id="path5519"
         d="M 0,0 5,-5 -12.5,0 5,5 0,0 Z"
         style="fill:#000000;fill-opacity:1;fill-rule:evenodd;stroke:#000000;stroke-width:1pt;stroke-opacity:1"
         transform="matrix(-0.4,0,0,-0.4,-4,0)"
         inkscape:connector-curvature="0" />
    </marker>
    <marker
       inkscape:stockid="Arrow1Mend"
       orient="auto"
       refY="0"
       refX="0"
       id="Arrow1Mend"
       style="overflow:visible"
       inkscape:isstock="true">
      <path
         id="path4191"
         d="M 0,0 5,-5 -12.5,0 5,5 0,0 Z"
         style="fill:#000000;fill-opacity:1;fill-rule:evenodd;stroke:#000000;stroke-width:1pt;stroke-opacity:1"
         transform="matrix(-0.4,0,0,-0.4,-4,0)"
         inkscape:connector-curvature="0" />
    </marker>
    <marker
       inkscape:stockid="Arrow1Lend"
       orient="auto"
       refY="0"
       refX="0"
       id="marker4562"
       style="overflow:visible"
       inkscape:isstock="true">
      <path
         id="path4564"
         d="M 0,0 5,-5 -12.5,0 5,5 0,0 Z"
         style="fill:#000000;fill-opacity:1;fill-rule:evenodd;stroke:#000000;stroke-width:1pt;stroke-opacity:1"
         transform="matrix(-0.8,0,0,-0.8,-10,0)"
         inkscape:connector-curvature="0" />
    </marker>
    <marker
       inkscape:stockid="Arrow1Lend"
       orient="auto"
       refY="0"
       refX="0"
       id="Arrow1Lend"
       style="overflow:visible"
       inkscape:isstock="true">
      <path
         id="path4185"
         d="M 0,0 5,-5 -12.5,0 5,5 0,0 Z"
         style="fill:#000000;fill-opacity:1;fill-rule:evenodd;stroke:#000000;stroke-width:1pt;stroke-opacity:1"
         transform="matrix(-0.8,0,0,-0.8,-10,0)"
         inkscape:connector-curvature="0" />
    </marker>
    <inkscape:perspective
       sodipodi:type="inkscape:persp3d"
       inkscape:vp_x="0 : 526.18106 : 1"
       inkscape:vp_y="0 : 999.99992 : 0"
       inkscape:vp_z="744.0945 : 526.18106 : 1"
       inkscape:persp3d-origin="372.04725 : 350.78738 : 1"
       id="perspective4136" />
    <marker
       inkscape:stockid="Arrow1Lend"
       orient="auto"
       refY="0"
       refX="0"
       id="marker4562-3"
       style="overflow:visible"
       inkscape:isstock="true">
      <path
         inkscape:connector-curvature="0"
         id="path4564-6"
         d="M 0,0 5,-5 -12.5,0 5,5 0,0 Z"
         style="fill:#000000;fill-opacity:1;fill-rule:evenodd;stroke:#000000;stroke-width:1pt;stroke-opacity:1"
         transform="matrix(-0.8,0,0,-0.8,-10,0)" />
    </marker>
    <marker
       inkscape:stockid="TriangleOutM"
       orient="auto"
       refY="0"
       refX="0"
       id="TriangleOutM-1"
       style="overflow:visible"
       inkscape:isstock="true">
      <path
         inkscape:connector-curvature="0"
         id="path4327-2"
         d="m 5.77,0 -8.65,5 0,-10 8.65,5 z"
         style="fill:#000000;fill-opacity:1;fill-rule:evenodd;stroke:#000000;stroke-width:1pt;stroke-opacity:1"
         transform="scale(0.4,0.4)" />
    </marker>
    <marker
       inkscape:stockid="TriangleOutM"
       orient="auto"
       refY="0"
       refX="0"
       id="TriangleOutM-6"
       style="overflow:visible"
       inkscape:isstock="true">
      <path
         inkscape:connector-curvature="0"
         id="path4327-8"
         d="m 5.77,0 -8.65,5 0,-10 8.65,5 z"
         style="fill:#000000;fill-opacity:1;fill-rule:evenodd;stroke:#000000;stroke-width:1pt;stroke-opacity:1"
         transform="scale(0.4,0.4)" />
    </marker>
  </defs>
  <sodipodi:namedview
     id="base"
     pagecolor="#ffffff"
     bordercolor="#666666"
     borderopacity="1.0"
     inkscape:pageopacity="0.0"
     inkscape:pageshadow="2"
     inkscape:zoom="4"
     inkscape:cx="23.494198"
     inkscape:cy="87.36434"
     inkscape:document-units="px"
     inkscape:current-layer="layer1"
     showgrid="false"
     inkscape:snap-grids="true"
     inkscape:snap-to-guides="true"
     inkscape:snap-intersection-paths="true"
     inkscape:snap-nodes="false"
     inkscape:window-width="1869"
     inkscape:window-height="1056"
     inkscape:window-x="1417"
     inkscape:window-y="24"
     inkscape:window-maximized="1"
     fit-margin-top="0"
     fit-margin-left="0"
     fit-margin-right="0"
     fit-margin-bottom="0" />
  <metadata
     id="metadata7">
    <rdf:RDF>
      <cc:Work
         rdf:about="">
        <dc:format>image/svg+xml</dc:format>
        <dc:type
           rdf:resource="http://purl.org/dc/dcmitype/StillImage" />
        <dc:title />
      </cc:Work>
    </rdf:RDF>
  </metadata>
  <g
     inkscape:label="Layer 1"
     inkscape:groupmode="layer"
     id="layer1"
     transform="translate(-141.67543,-70.809332)">
    <path
       style="opacity:0.43000004;fill:#ffffff"
       id="path4152"
       d="m 251.33083,402.88207 c 1.76458,4.08646 4.27916,7.80684 7.27028,11.08519 2.97919,3.08776 5.27606,5.09249 9.43413,6.24303 3.70309,0.90942 6.93085,-0.63289 10.09065,-2.40203 8.29809,-4.75085 -6.48387,3.71514 -6.91565,3.92612 -1.27779,0.62433 2.33086,-1.63025 3.48485,-2.46141 3.27715,-2.36038 6.48342,-4.81137 9.67146,-7.28977 3.75008,-2.94389 7.49935,-5.94491 10.25248,-9.8761 1.66733,-2.38045 2.33319,-5.03319 2.66087,-7.86995 0.23625,-2.86282 0.20143,-5.73753 0.17553,-8.60706 -0.15807,-2.98047 0.14605,-5.92724 0.45328,-8.88611 0.24766,-4.57307 0.81969,-9.10914 1.44986,-13.64209 0.89181,-4.51327 1.56163,-9.0501 1.89967,-13.6379 0.15193,-3.67926 0.16703,-7.31566 0.91772,-10.93137 1.94664,-7.34453 7.86013,-7.99435 15.997,-11.87784 0.79589,-0.37986 1.7647,-0.0317 2.64564,0.009 1.26953,0.059 2.53443,0.19354 3.80165,0.29031 10.63385,1.1193 20.8611,4.3277 30.78284,8.18578 3.86935,1.62827 8.0115,3.28341 10.75324,6.63068 1.11624,1.36277 1.37877,2.15762 2.09962,3.69986 0.70906,2.379 0.42357,1.20011 0.87202,3.53288 0,0 -13.07914,6.94518 -13.07914,6.94518 l 0,0 c -0.31686,-2.14721 -0.10126,-1.07018 -0.65586,-3.22929 -0.59513,-1.41053 -0.76376,-2.06305 -1.75085,-3.30426 -2.52979,-3.18107 -6.4802,-4.72106 -10.05328,-6.36062 -9.78401,-4.0332 -19.98332,-7.11709 -30.61734,-7.70189 -1.30204,0.003 -2.60751,-0.0866 -3.90611,0.008 -0.849,0.0618 -3.19849,0.96296 -2.51208,0.45949 3.49442,-2.56311 7.39584,-4.5193 11.10423,-6.76172 0.34564,-0.20901 -0.73687,0.36873 -1.01548,0.66117 -0.52953,0.5558 -0.85698,1.7073 -1.09938,2.37503 -0.17413,0.70172 -0.60021,2.35644 -0.70868,3.05384 -0.39728,2.55419 -0.15249,5.16855 -0.40993,7.73479 -0.37384,4.62178 -0.90282,9.22586 -1.92555,13.75615 -0.65439,4.4856 -1.20034,8.9846 -1.37211,13.51817 -0.21901,2.90207 -0.57787,5.78967 -0.40409,8.70684 -0.005,2.92127 0.002,5.84574 -0.16058,8.76328 -0.22857,3.0227 -0.66166,5.92617 -2.38145,8.51264 -2.52853,4.34325 -6.59536,7.40163 -10.4574,10.50534 -3.21881,2.49723 -6.48579,4.91796 -9.7453,7.36087 -1.10685,0.82956 -2.12092,1.79206 -3.29812,2.51834 -5.04376,3.11174 -10.21999,6.00353 -15.3433,8.98248 -0.86918,0.50539 -1.75581,0.98018 -2.63371,1.47027 -3.68614,1.79036 -6.84747,2.81828 -10.91751,1.56934 -4.17779,-1.49312 -6.69452,-3.77315 -9.69985,-6.99866 -3.04389,-3.41535 -5.55964,-7.25171 -7.77711,-11.25114 0,0 13.02284,-7.41499 13.02284,-7.41499 z"
       inkscape:connector-curvature="0" />
    <path
       style="opacity:0.43000004;fill:#ffffff"
       id="path4154"
       d="m 363.12873,367.03686 c -1.47514,3.7865 -2.88099,7.59981 -4.42664,11.35863 -1.95522,5.0383 -4.71171,9.68363 -7.49221,14.29726 -2.11863,3.46138 -4.24452,6.92486 -5.89327,10.63801 -1.38541,3.53608 -2.16385,7.26651 -1.86669,11.0601 0.8294,4.52075 3.64293,6.30922 7.54864,8.20496 4.38052,1.68205 9.0784,1.99731 13.71924,2.17356 2.13293,0.0598 4.26669,0.0354 6.39984,0.009 0,0 -12.03525,8.74886 -12.03525,8.74886 l 0,0 c -2.10652,-0.0159 -4.21344,-0.0464 -6.31712,-0.16697 -4.7734,-0.30987 -9.59144,-0.78085 -14.03074,-2.70622 -4.33081,-2.29333 -7.26513,-4.41777 -8.39486,-9.42765 -0.43196,-4.00757 0.25427,-7.92494 1.58253,-11.72663 1.52559,-3.86868 3.69056,-7.38814 5.91198,-10.89656 2.83765,-4.51441 5.62077,-9.09505 7.55912,-14.0813 1.56708,-3.63453 2.88289,-7.37303 4.16234,-11.11027 0,0 13.57309,-6.37443 13.57309,-6.37443 z"
       inkscape:connector-curvature="0" />
    <path
       style="fill:none;fill-rule:evenodd;stroke:#000000;stroke-width:1px;stroke-linecap:butt;stroke-linejoin:miter;stroke-opacity:1;marker-end:url(#marker5873)"
       d="m 158.92857,224.8622 0,-152.142854"
       id="path6075"
       inkscape:connector-curvature="0"
       inkscape:export-xdpi="90"
       inkscape:export-ydpi="90" />
    <path
       style="fill:none;fill-rule:evenodd;stroke:#000000;stroke-width:1px;stroke-linecap:butt;stroke-linejoin:miter;stroke-opacity:1;marker-end:url(#marker6097)"
       d="m 158.43191,224.35997 160.35715,0"
       id="path6089"
       inkscape:connector-curvature="0"
       sodipodi:nodetypes="cc"
       inkscape:export-xdpi="90"
       inkscape:export-ydpi="90" />
    <text
       xml:space="preserve"
       style="font-style:normal;font-variant:normal;font-weight:normal;font-stretch:normal;font-size:10px;line-height:139.99999762%;font-family:'Latin Modern Math';-inkscape-font-specification:'Latin Modern Math, Normal';text-align:start;letter-spacing:0px;word-spacing:0px;writing-mode:lr-tb;text-anchor:start;fill:#000000;fill-opacity:1;stroke:none;stroke-width:1px;stroke-linecap:butt;stroke-linejoin:miter;stroke-opacity:1"
       x="263.04373"
       y="239.54298"
       id="text7811"
       sodipodi:linespacing="140%"
       inkscape:export-xdpi="90"
       inkscape:export-ydpi="90"><tspan
         sodipodi:role="line"
         id="tspan7813"
         x="263.04373"
         y="239.54298">Observable 1</tspan></text>
    <text
       xml:space="preserve"
       style="font-style:normal;font-variant:normal;font-weight:normal;font-stretch:normal;font-size:10px;line-height:139.99999762%;font-family:'Latin Modern Math';-inkscape-font-specification:'Latin Modern Math, Normal';text-align:start;letter-spacing:0px;word-spacing:0px;writing-mode:lr-tb;text-anchor:start;fill:#000000;fill-opacity:1;stroke:none;stroke-width:1px;stroke-linecap:butt;stroke-linejoin:miter;stroke-opacity:1"
       x="-129.3309"
       y="148.72543"
       id="text7811-0"
       sodipodi:linespacing="140%"
       transform="matrix(0,-1,1,0,0,0)"
       inkscape:export-xdpi="90"
       inkscape:export-ydpi="90"><tspan
         sodipodi:role="line"
         id="tspan7833"
         x="-129.3309"
         y="148.72543">Observable 2</tspan></text>
    <rect
       style="opacity:0.43000004;fill:#ff2a2a;stroke-width:1;stroke-miterlimit:4;stroke-dasharray:none"
       id="rect7873-6"
       width="49"
       height="48.5"
       x="265.5"
       y="80.112206"
       inkscape:export-xdpi="90"
       inkscape:export-ydpi="90" />
    <rect
       style="opacity:0.62300002;fill:#7fff7f;stroke-width:1;stroke-miterlimit:4;stroke-dasharray:none"
       id="rect7873-8"
       width="49"
       height="48.5"
       x="265"
       y="142.1122"
       inkscape:export-xdpi="90"
       inkscape:export-ydpi="90" />
    <text
       xml:space="preserve"
       style="font-style:normal;font-variant:normal;font-weight:normal;font-stretch:normal;font-size:15px;line-height:125%;font-family:'Latin Modern Math';-inkscape-font-specification:'Latin Modern Math, Normal';text-align:start;letter-spacing:0px;word-spacing:0px;writing-mode:lr-tb;text-anchor:start;fill:#000000;fill-opacity:1;stroke:none;stroke-width:1px;stroke-linecap:butt;stroke-linejoin:miter;stroke-opacity:1"
       x="280"
       y="109.36221"
       id="text7904"
       sodipodi:linespacing="125%"
       inkscape:export-xdpi="90"
       inkscape:export-ydpi="90"><tspan
         sodipodi:role="line"
         id="tspan7906"
         x="280"
         y="109.36221">SR</tspan></text>
    <text
       xml:space="preserve"
       style="font-style:normal;font-variant:normal;font-weight:normal;font-stretch:normal;font-size:15px;line-height:125%;font-family:'Latin Modern Math';-inkscape-font-specification:'Latin Modern Math, Normal';text-align:start;letter-spacing:0px;word-spacing:0px;writing-mode:lr-tb;text-anchor:start;fill:#000000;fill-opacity:1;stroke:none;stroke-width:1px;stroke-linecap:butt;stroke-linejoin:miter;stroke-opacity:1"
       x="277.87314"
       y="171.36787"
       id="text7904-1"
       sodipodi:linespacing="125%"
       inkscape:export-xdpi="90"
       inkscape:export-ydpi="90"><tspan
         sodipodi:role="line"
         id="tspan7942"
         x="277.87314"
         y="171.36787">VR</tspan></text>
    <rect
       style="opacity:0.62300002;fill:#7fff7f;stroke-width:1;stroke-miterlimit:4;stroke-dasharray:none"
       id="rect7873-8-7"
       width="49"
       height="48.5"
       x="201.25903"
       y="80.664444"
       inkscape:export-xdpi="90"
       inkscape:export-ydpi="90" />
    <text
       xml:space="preserve"
       style="font-style:normal;font-variant:normal;font-weight:normal;font-stretch:normal;font-size:15px;line-height:125%;font-family:'Latin Modern Math';-inkscape-font-specification:'Latin Modern Math, Normal';text-align:start;letter-spacing:0px;word-spacing:0px;writing-mode:lr-tb;text-anchor:start;fill:#000000;fill-opacity:1;stroke:none;stroke-width:1px;stroke-linecap:butt;stroke-linejoin:miter;stroke-opacity:1"
       x="214.44057"
       y="109.92012"
       id="text7904-1-1"
       sodipodi:linespacing="125%"
       inkscape:export-xdpi="90"
       inkscape:export-ydpi="90"><tspan
         sodipodi:role="line"
         id="tspan7942-3"
         x="214.44057"
         y="109.92012">VR</tspan></text>
    <rect
       style="opacity:0.331;fill:#ffc600;stroke-width:1;stroke-miterlimit:4;stroke-dasharray:none"
       id="rect7873"
       width="49"
       height="48.5"
       x="171"
       y="166.36221"
       inkscape:export-xdpi="90"
       inkscape:export-ydpi="90" />
    <text
       xml:space="preserve"
       style="font-style:normal;font-variant:normal;font-weight:normal;font-stretch:normal;font-size:15px;line-height:125%;font-family:'Latin Modern Math';-inkscape-font-specification:'Latin Modern Math, Normal';text-align:start;letter-spacing:0px;word-spacing:0px;writing-mode:lr-tb;text-anchor:start;fill:#000000;fill-opacity:1;stroke:none;stroke-width:1px;stroke-linecap:butt;stroke-linejoin:miter;stroke-opacity:1"
       x="184.91519"
       y="196.48471"
       id="text7904-0"
       sodipodi:linespacing="125%"
       inkscape:export-xdpi="90"
       inkscape:export-ydpi="90"><tspan
         sodipodi:role="line"
         id="tspan7946"
         x="184.91519"
         y="196.48471">CR</tspan></text>
    <path
       style="fill:none;fill-rule:evenodd;stroke:#000000;stroke-width:0.60000002;stroke-linecap:butt;stroke-linejoin:miter;stroke-miterlimit:4;stroke-dasharray:none;stroke-opacity:1;marker-start:url(#Arrow1Send);marker-end:url(#TriangleOutM)"
       d="m 216.93916,180.02242 54.75751,-9.05658"
       id="path7993"
       inkscape:connector-curvature="0"
       sodipodi:nodetypes="cc"
       inkscape:export-xdpi="90"
       inkscape:export-ydpi="90" />
    <path
       style="fill:none;fill-rule:evenodd;stroke:#000000;stroke-width:0.60000002;stroke-linecap:butt;stroke-linejoin:miter;stroke-miterlimit:4;stroke-dasharray:none;stroke-opacity:1;marker-start:url(#marker5822);marker-end:url(#TriangleOutM-1)"
       d="m 214.11072,171.7748 57.77586,-48.99973"
       id="path7993-0"
       inkscape:connector-curvature="0"
       sodipodi:nodetypes="cc"
       inkscape:export-xdpi="90"
       inkscape:export-ydpi="90" />
    <path
       style="fill:none;fill-rule:evenodd;stroke:#000000;stroke-width:0.60000002;stroke-linecap:butt;stroke-linejoin:miter;stroke-miterlimit:4;stroke-dasharray:none;stroke-opacity:1;marker-start:url(#marker5997);marker-end:url(#TriangleOutM-6)"
       d="m 206.1124,169.30782 9.50605,-45.18303"
       id="path7993-7"
       inkscape:connector-curvature="0"
       sodipodi:nodetypes="cc"
       inkscape:export-xdpi="90"
       inkscape:export-ydpi="90" />
  </g>
</svg>
