<?xml version="1.0" encoding="UTF-8" standalone="no"?>
<!-- Created with Inkscape (http://www.inkscape.org/) -->

<svg
   xmlns:dc="http://purl.org/dc/elements/1.1/"
   xmlns:cc="http://creativecommons.org/ns#"
   xmlns:rdf="http://www.w3.org/1999/02/22-rdf-syntax-ns#"
   xmlns:svg="http://www.w3.org/2000/svg"
   xmlns="http://www.w3.org/2000/svg"
   xmlns:sodipodi="http://sodipodi.sourceforge.net/DTD/sodipodi-0.dtd"
   xmlns:inkscape="http://www.inkscape.org/namespaces/inkscape"
   version="1.1"
   id="svg2"
   xml:space="preserve"
   width="793.70135"
   height="1122.52"
   viewBox="0 0 793.70135 1122.52"
   sodipodi:docname="l1_reco.svg"
   inkscape:version="0.92.3 (2405546, 2018-03-11)"><metadata
     id="metadata8"><rdf:RDF><cc:Work
         rdf:about=""><dc:format>image/svg+xml</dc:format><dc:type
           rdf:resource="http://purl.org/dc/dcmitype/StillImage" /><dc:title></dc:title></cc:Work></rdf:RDF></metadata><defs
     id="defs6"><clipPath
       clipPathUnits="userSpaceOnUse"
       id="clipPath24"><path
         d="M 0,0 H 473 V 531 H 0 Z"
         id="path22"
         inkscape:connector-curvature="0" /></clipPath><clipPath
       clipPathUnits="userSpaceOnUse"
       id="clipPath38"><path
         d="M 0,0 H 473 V 531 H 0 Z"
         id="path36"
         inkscape:connector-curvature="0" /></clipPath><clipPath
       clipPathUnits="userSpaceOnUse"
       id="clipPath24-9"><path
         d="M 0,0 H 473 V 531 H 0 Z"
         id="path22-2"
         inkscape:connector-curvature="0" /></clipPath><clipPath
       clipPathUnits="userSpaceOnUse"
       id="clipPath38-2"><path
         d="M 0,0 H 473 V 531 H 0 Z"
         id="path36-4"
         inkscape:connector-curvature="0" /></clipPath></defs><sodipodi:namedview
     pagecolor="#ffffff"
     bordercolor="#666666"
     borderopacity="1"
     objecttolerance="10"
     gridtolerance="10"
     guidetolerance="10"
     inkscape:pageopacity="0"
     inkscape:pageshadow="2"
     inkscape:window-width="1315"
     inkscape:window-height="744"
     id="namedview4"
     showgrid="false"
     inkscape:zoom="0.84096496"
     inkscape:cx="296.35147"
     inkscape:cy="633.18799"
     inkscape:window-x="51"
     inkscape:window-y="24"
     inkscape:window-maximized="1"
     inkscape:current-layer="g10" /><g
     id="g10"
     inkscape:groupmode="layer"
     inkscape:label="1611.09661"
     transform="matrix(1.3333333,0,0,-1.3333333,0,1122.52)"><g
       transform="matrix(0.38611,0,0,0.38611,163.79743,551.35717)"
       id="g14"><g
         id="g16"><g
           id="g18"><g
             clip-path="url(#clipPath24-9)"
             id="g20"><g
               id="g26" /><g
               id="g28" /><g
               id="g30"><g
                 id="g32"><g
                   clip-path="url(#clipPath38-2)"
                   id="g34"><g
                     id="g40" /><g
                     id="g42"><text
                       id="text46"
                       style="font-variant:normal;font-weight:bold;font-size:17.27999878px;font-family:Helvetica;-inkscape-font-specification:Helvetica-Bold;writing-mode:lr-tb;fill:#000000;fill-opacity:1;fill-rule:nonzero;stroke:none"
                       transform="matrix(1,0,0,-1,60.441399,98.083298)"><tspan
                         id="tspan44"
                         sodipodi:role="line"
                         y="0"
                         x="0 11.52576 21.133438 27.855358 33.609596 38.413437 48.021118 57.628796 62.432636 67.236473 76.844154 87.402237 102.76415">Vertical sums</tspan></text>
<path
                       inkscape:connector-curvature="0"
                       id="path48"
                       style="fill:#dddddd;fill-opacity:1;fill-rule:nonzero;stroke:none"
                       d="M 26.189999,126.604 H 26.91 c 4.213001,0 7.68,-3.46799 7.68,-7.681 V 88.923004 c 0,-4.211998 -3.466999,-7.679001 -7.68,-7.679001 h -1.440001 c -4.212997,0 -7.68,3.467003 -7.68,7.679001 V 118.923 c 0,4.21301 3.467003,7.681 7.68,7.681 h 0.72" /><path
                       inkscape:connector-curvature="0"
                       id="path50"
                       style="fill:none;stroke:#000000;stroke-width:0.95999998;stroke-linecap:butt;stroke-linejoin:miter;stroke-miterlimit:4;stroke-dasharray:none;stroke-opacity:1"
                       d="M 26.189999,126.604 H 26.91 c 4.213001,0 7.68,-3.46799 7.68,-7.681 V 88.923004 c 0,-4.211998 -3.466999,-7.679001 -7.68,-7.679001 h -1.440001 c -4.212997,0 -7.68,3.467003 -7.68,7.679001 V 118.923 c 0,4.21301 3.467003,7.681 7.68,7.681 z" /><path
                       inkscape:connector-curvature="0"
                       id="path52"
                       style="fill:#000000;fill-opacity:1;fill-rule:nonzero;stroke:none"
                       d="m 24.351002,118.02801 c 1.333999,0.308 2.552999,0.308 3.886999,-10e-4 -0.972,-4.209 -0.972,-4.209 -1.944,-8.418 l -1.942999,8.419" /><path
                       inkscape:connector-curvature="0"
                       id="path54"
                       style="fill:none;stroke:#000000;stroke-width:0.95999998;stroke-linecap:square;stroke-linejoin:miter;stroke-miterlimit:4;stroke-dasharray:none;stroke-opacity:1"
                       d="m 26.294001,123.769 v -5.76" /><path
                       inkscape:connector-curvature="0"
                       id="path56"
                       style="fill:#000000;fill-opacity:1;fill-rule:nonzero;stroke:none"
                       d="m 28.237001,89.793007 c -1.333,-0.308006 -2.552999,-0.308006 -3.885999,0 0.970999,4.209 0.970999,4.209 1.942999,8.418999 l 1.943,-8.418999" /><path
                       inkscape:connector-curvature="0"
                       id="path58"
                       style="fill:none;stroke:#000000;stroke-width:0.95999998;stroke-linecap:square;stroke-linejoin:miter;stroke-miterlimit:4;stroke-dasharray:none;stroke-opacity:1"
                       d="m 26.294001,84.052002 v 5.760002" /><text
                       id="text62"
                       style="font-variant:normal;font-weight:normal;font-size:13.43999958px;font-family:Symbol;-inkscape-font-specification:Symbol;writing-mode:lr-tb;fill:#000000;fill-opacity:1;fill-rule:nonzero;stroke:none"
                       transform="matrix(1,0,0,-1,22.521099,99.5233)"><tspan
                         id="tspan60"
                         y="0"
                         x="0">!</tspan></text>
<path
                       inkscape:connector-curvature="0"
                       id="path64"
                       style="fill:#dddddd;fill-opacity:1;fill-rule:nonzero;stroke:none"
                       d="m 26.297001,64.196007 h 15 c 4.212997,0 7.68,-3.467003 7.68,-7.680004 v -1.439999 c 0,-4.213001 -3.467003,-7.68 -7.68,-7.68 h -30 c -4.2130009,0 -7.6800009,3.466999 -7.6800009,7.68 v 1.439999 c 0,4.213001 3.467,7.680004 7.6800009,7.680004 h 15" /><path
                       inkscape:connector-curvature="0"
                       id="path66"
                       style="fill:none;stroke:#000000;stroke-width:0.95999998;stroke-linecap:butt;stroke-linejoin:miter;stroke-miterlimit:4;stroke-dasharray:none;stroke-opacity:1"
                       d="m 26.297001,64.196007 h 15 c 4.212997,0 7.68,-3.467003 7.68,-7.680004 v -1.439999 c 0,-4.213001 -3.467003,-7.68 -7.68,-7.68 h -30 c -4.2130009,0 -7.6800009,3.466999 -7.6800009,7.68 v 1.439999 c 0,4.213001 3.467,7.680004 7.6800009,7.680004 z" /><path
                       inkscape:connector-curvature="0"
                       id="path68"
                       style="fill:#000000;fill-opacity:1;fill-rule:nonzero;stroke:none"
                       d="m 12.193001,53.956001 c -0.308001,1.333996 -0.308001,2.553997 0,3.888001 4.208999,-0.972 4.208999,-0.972 8.419,-1.944 l -8.419,-1.944001" /><path
                       inkscape:connector-curvature="0"
                       id="path70"
                       style="fill:none;stroke:#000000;stroke-width:0.95999998;stroke-linecap:square;stroke-linejoin:miter;stroke-miterlimit:4;stroke-dasharray:none;stroke-opacity:1"
                       d="M 6.4510002,55.900002 H 12.212001" /><text
                       id="text74"
                       style="font-variant:normal;font-weight:normal;font-size:13.43999958px;font-family:Symbol;-inkscape-font-specification:Symbol;writing-mode:lr-tb;fill:#000000;fill-opacity:1;fill-rule:nonzero;stroke:none"
                       transform="matrix(1,0,0,-1,21.561199,51.5233)"><tspan
                         id="tspan72"
                         y="0"
                         x="0">!</tspan></text>
<path
                       inkscape:connector-curvature="0"
                       id="path76"
                       style="fill:#000000;fill-opacity:1;fill-rule:nonzero;stroke:none"
                       d="m 40.427002,57.843002 c 0.307999,-1.333004 0.307999,-2.553005 0,-3.887001 -4.209,0.972 -4.209,0.972 -8.417999,1.944001 l 8.417999,1.943" /><path
                       inkscape:connector-curvature="0"
                       id="path78"
                       style="fill:none;stroke:#000000;stroke-width:0.95999998;stroke-linecap:square;stroke-linejoin:miter;stroke-miterlimit:4;stroke-dasharray:none;stroke-opacity:1"
                       d="M 46.169003,55.900002 H 40.409" /><text
                       id="text82"
                       style="font-variant:normal;font-weight:bold;font-size:17.27999878px;font-family:Helvetica;-inkscape-font-specification:Helvetica-Bold;writing-mode:lr-tb;fill:#000000;fill-opacity:1;fill-rule:nonzero;stroke:none"
                       transform="matrix(1,0,0,-1,60.441399,50.8032)"><tspan
                         id="tspan80"
                         sodipodi:role="line"
                         y="0"
                         x="0 12.476159 23.034239 29.756159 34.559998 43.199997 53.758076 64.316154 70.070396 79.678078 84.481918 89.285751 98.893433 109.45152 124.81343">Horizontal sums</tspan></text>
<path
                       inkscape:connector-curvature="0"
                       id="path84"
                       style="fill:#ff5bff;fill-opacity:1;fill-rule:nonzero;stroke:none"
                       d="m 151.70601,529.79401 h 228.692 V 301.10199 h -228.692 z" /><path
                       inkscape:connector-curvature="0"
                       id="path86"
                       style="fill:#fffc00;fill-opacity:1;fill-rule:nonzero;stroke:none"
                       d="M 66.667,444.75504 H 295.35902 V 215.79505 H 66.667 Z" /><path
                       inkscape:connector-curvature="0"
                       id="path88"
                       style="fill:#fffc00;fill-opacity:1;fill-rule:nonzero;stroke:none"
                       d="m 237.70601,160.38301 56.64,56.64 h -56.64 v -56.64" /><path
                       inkscape:connector-curvature="0"
                       id="path90"
                       style="fill:#fffc00;fill-opacity:1;fill-rule:nonzero;stroke:none"
                       d="M 10.934001,387.10202 H 237.706 v -226.772 H 10.934001 Z" /><path
                       inkscape:connector-curvature="0"
                       id="path92"
                       style="fill:none;stroke:#000000;stroke-width:1.91999996;stroke-linecap:butt;stroke-linejoin:miter;stroke-miterlimit:4;stroke-dasharray:none;stroke-opacity:1"
                       d="M 10.934001,387.10202 H 237.70601 v -226.772 H 10.934001 Z" /><path
                       inkscape:connector-curvature="0"
                       id="path94"
                       style="fill:none;stroke:#000000;stroke-width:1.91999996;stroke-linecap:square;stroke-linejoin:miter;stroke-miterlimit:4;stroke-dasharray:none;stroke-opacity:1"
                       d="M 10.934001,330.40903 H 237.70601 M 10.934001,273.716 H 237.70601 M 10.934001,217.02301 H 237.70601 M 181.01302,387.10202 V 160.33 M 124.32,387.10202 V 160.33 M 67.627007,387.10202 V 160.33" /><path
                       inkscape:connector-curvature="0"
                       id="path96"
                       style="fill:#fffc00;fill-opacity:1;fill-rule:nonzero;stroke:none"
                       d="m 10.934001,387.15503 56.640004,56.63998 V 387.15503 H 10.934001" /><path
                       inkscape:connector-curvature="0"
                       id="path98"
                       style="fill:none;stroke:#000000;stroke-width:1.91999996;stroke-linecap:square;stroke-linejoin:miter;stroke-miterlimit:4;stroke-dasharray:none;stroke-opacity:1"
                       d="m 10.934001,387.10202 h 56.640004 m 56.745995,0 141.732,141.73203 M 181.01302,387.10202 322.74503,528.83405 M 237.70601,387.10202 379.43802,528.83405 M 237.70601,330.40903 379.43802,472.14102 M 237.70601,273.716 379.43802,415.44803 M 237.70601,217.02301 v -56.64 m 141.73201,141.411 v 227.04004 m -226.77202,0 h 227.04002" /><path
                       inkscape:connector-curvature="0"
                       id="path100"
                       style="fill:#ff5bff;fill-opacity:1;fill-rule:nonzero;stroke:none"
                       d="m 294.39902,216.62201 85.44,85.44 -85.07001,-0.12799 -0.36999,-85.31201" /><path
                       inkscape:connector-curvature="0"
                       id="path102"
                       style="fill:none;stroke:#000000;stroke-width:1.91999996;stroke-linecap:square;stroke-linejoin:miter;stroke-miterlimit:4;stroke-dasharray:none;stroke-opacity:1"
                       d="M 237.70601,217.02301 379.43802,358.755 M 237.70601,160.33 379.43802,302.06201 m -85.039,-85.30701 v 227.04001" /><path
                       inkscape:connector-curvature="0"
                       id="path104"
                       style="fill:#ff5bff;fill-opacity:1;fill-rule:nonzero;stroke:none"
                       d="m 153.067,528.83405 -85.439993,-85.44004 85.070003,0.12802 0.36999,85.31202" /><path
                       inkscape:connector-curvature="0"
                       id="path106"
                       style="fill:none;stroke:#000000;stroke-width:1.91999996;stroke-linecap:square;stroke-linejoin:miter;stroke-miterlimit:4;stroke-dasharray:none;stroke-opacity:1"
                       d="M 67.627007,387.10202 209.35901,528.83405 M 67.627007,443.79501 H 294.66702 M 10.934001,387.10202 152.666,528.83405" /><path
                       inkscape:connector-curvature="0"
                       id="path108"
                       style="fill:#a6fa00;fill-opacity:1;fill-rule:nonzero;stroke:none"
                       d="M 67.627007,330.40903 H 181.013 V 217.02402 H 67.627007 Z" /><path
                       inkscape:connector-curvature="0"
                       id="path110"
                       style="fill:none;stroke:#000000;stroke-width:1.91999996;stroke-linecap:butt;stroke-linejoin:miter;stroke-miterlimit:4;stroke-dasharray:none;stroke-opacity:1"
                       d="M 67.627007,330.40903 H 181.013 V 217.02402 H 67.627007 Z" /><path
                       inkscape:connector-curvature="0"
                       id="path112"
                       style="fill:none;stroke:#000000;stroke-width:1.91999996;stroke-linecap:square;stroke-linejoin:miter;stroke-miterlimit:4;stroke-dasharray:none;stroke-opacity:1"
                       d="M 124.32,330.40903 V 217.02301 M 181.01302,273.716 H 67.627007" /><path
                       inkscape:connector-curvature="0"
                       id="path114"
                       style="fill:#e4e4e4;fill-opacity:1;fill-rule:nonzero;stroke:none"
                       d="m 90.200005,296.39301 h 0.719993 c 4.213005,0 7.68,-3.46698 7.68,-7.68 v -30 c 0,-4.21301 -3.466995,-7.68001 -7.68,-7.68001 h -1.440002 c -4.211991,0 -7.679993,3.467 -7.679993,7.68001 v 30 c 0,4.21302 3.468002,7.68 7.679993,7.68 h 0.720009" /><path
                       inkscape:connector-curvature="0"
                       id="path116"
                       style="fill:none;stroke:#000000;stroke-width:0.95999998;stroke-linecap:butt;stroke-linejoin:miter;stroke-miterlimit:4;stroke-dasharray:none;stroke-opacity:1"
                       d="m 90.200005,296.39301 h 0.719993 c 4.213005,0 7.68,-3.46698 7.68,-7.68 v -30 c 0,-4.21301 -3.466995,-7.68001 -7.68,-7.68001 h -1.440002 c -4.211991,0 -7.679993,3.467 -7.679993,7.68001 v 30 c 0,4.21302 3.468002,7.68 7.679993,7.68 z" /><path
                       inkscape:connector-curvature="0"
                       id="path118"
                       style="fill:#000000;fill-opacity:1;fill-rule:nonzero;stroke:none"
                       d="m 88.361008,287.81702 c 1.333999,0.30798 2.552993,0.30798 3.886993,0 -0.972,-4.20902 -0.972,-4.20902 -1.944,-8.41901 l -1.942993,8.41901" /><path
                       inkscape:connector-curvature="0"
                       id="path120"
                       style="fill:none;stroke:#000000;stroke-width:0.95999998;stroke-linecap:square;stroke-linejoin:miter;stroke-miterlimit:4;stroke-dasharray:none;stroke-opacity:1"
                       d="m 90.304001,293.55801 v -5.759" /><path
                       inkscape:connector-curvature="0"
                       id="path122"
                       style="fill:#000000;fill-opacity:1;fill-rule:nonzero;stroke:none"
                       d="m 92.248001,259.58301 c -1.334,-0.30799 -2.552994,-0.30799 -3.886993,0 0.970993,4.20901 0.970993,4.20901 1.942993,8.418 l 1.944,-8.418" /><path
                       inkscape:connector-curvature="0"
                       id="path124"
                       style="fill:none;stroke:#000000;stroke-width:0.95999998;stroke-linecap:square;stroke-linejoin:miter;stroke-miterlimit:4;stroke-dasharray:none;stroke-opacity:1"
                       d="m 90.304001,253.84102 v 5.75999" /><text
                       id="text128"
                       style="font-variant:normal;font-weight:normal;font-size:13.43999958px;font-family:Symbol;-inkscape-font-specification:Symbol;writing-mode:lr-tb;fill:#000000;fill-opacity:1;fill-rule:nonzero;stroke:none"
                       transform="matrix(1,0,0,-1,86.601501,269.4433)"><tspan
                         id="tspan126"
                         y="0"
                         x="0">!</tspan></text>
<path
                       inkscape:connector-curvature="0"
                       id="path130"
                       style="fill:#e4e4e4;fill-opacity:1;fill-rule:nonzero;stroke:none"
                       d="m 158.23201,296.39301 h 0.72 c 4.213,0 7.67999,-3.46698 7.67999,-7.68 v -30 c 0,-4.21301 -3.46699,-7.68001 -7.67999,-7.68001 h -1.44 c -4.213,0 -7.68001,3.467 -7.68001,7.68001 v 30 c 0,4.21302 3.46701,7.68 7.68001,7.68 h 0.72" /><path
                       inkscape:connector-curvature="0"
                       id="path132"
                       style="fill:none;stroke:#000000;stroke-width:0.95999998;stroke-linecap:butt;stroke-linejoin:miter;stroke-miterlimit:4;stroke-dasharray:none;stroke-opacity:1"
                       d="m 158.23201,296.39301 h 0.72 c 4.213,0 7.67999,-3.46698 7.67999,-7.68 v -30 c 0,-4.21301 -3.46699,-7.68001 -7.67999,-7.68001 h -1.44 c -4.213,0 -7.68001,3.467 -7.68001,7.68001 v 30 c 0,4.21302 3.46701,7.68 7.68001,7.68 z" /><path
                       inkscape:connector-curvature="0"
                       id="path134"
                       style="fill:#000000;fill-opacity:1;fill-rule:nonzero;stroke:none"
                       d="m 156.39201,287.81702 c 1.334,0.30798 2.553,0.30798 3.887,0 -0.971,-4.20902 -0.971,-4.20902 -1.943,-8.41901 l -1.944,8.41901" /><path
                       inkscape:connector-curvature="0"
                       id="path136"
                       style="fill:none;stroke:#000000;stroke-width:0.95999998;stroke-linecap:square;stroke-linejoin:miter;stroke-miterlimit:4;stroke-dasharray:none;stroke-opacity:1"
                       d="m 158.33601,293.55801 v -5.759" /><path
                       inkscape:connector-curvature="0"
                       id="path138"
                       style="fill:#000000;fill-opacity:1;fill-rule:nonzero;stroke:none"
                       d="m 160.27901,259.58301 c -1.334,-0.30799 -2.553,-0.30799 -3.887,0 0.972,4.20901 0.972,4.20901 1.944,8.418 l 1.943,-8.418" /><path
                       inkscape:connector-curvature="0"
                       id="path140"
                       style="fill:none;stroke:#000000;stroke-width:0.95999998;stroke-linecap:square;stroke-linejoin:miter;stroke-miterlimit:4;stroke-dasharray:none;stroke-opacity:1"
                       d="m 158.33601,253.84102 v 5.75999" /><text
                       id="text144"
                       style="font-variant:normal;font-weight:normal;font-size:13.43999958px;font-family:Symbol;-inkscape-font-specification:Symbol;writing-mode:lr-tb;fill:#000000;fill-opacity:1;fill-rule:nonzero;stroke:none"
                       transform="matrix(1,0,0,-1,154.52139,269.4433)"><tspan
                         id="tspan142"
                         y="0"
                         x="0">!</tspan></text>
<path
                       inkscape:connector-curvature="0"
                       id="path146"
                       style="fill:#e4e4e4;fill-opacity:1;fill-rule:nonzero;stroke:none"
                       d="m 124.32301,319.07001 h 15 c 4.213,0 7.68,-3.46698 7.68,-7.68003 v -1.44 c 0,-4.21298 -3.467,-7.67999 -7.68,-7.67999 h -30 c -4.21301,0 -7.68,3.46701 -7.68,7.67999 v 1.44 c 0,4.21305 3.46699,7.68003 7.68,7.68003 h 15" /><path
                       inkscape:connector-curvature="0"
                       id="path148"
                       style="fill:none;stroke:#000000;stroke-width:0.95999998;stroke-linecap:butt;stroke-linejoin:miter;stroke-miterlimit:4;stroke-dasharray:none;stroke-opacity:1"
                       d="m 124.32301,319.07001 h 15 c 4.213,0 7.68,-3.46698 7.68,-7.68003 v -1.44 c 0,-4.21298 -3.467,-7.67999 -7.68,-7.67999 h -30 c -4.21301,0 -7.68,3.46701 -7.68,7.67999 v 1.44 c 0,4.21305 3.46699,7.68003 7.68,7.68003 z" /><path
                       inkscape:connector-curvature="0"
                       id="path150"
                       style="fill:#000000;fill-opacity:1;fill-rule:nonzero;stroke:none"
                       d="m 110.219,308.83102 c -0.308,1.33399 -0.308,2.55298 0,3.887 4.20901,-0.97202 4.20901,-0.97202 8.41801,-1.944 l -8.41801,-1.943" /><path
                       inkscape:connector-curvature="0"
                       id="path152"
                       style="fill:none;stroke:#000000;stroke-width:0.95999998;stroke-linecap:square;stroke-linejoin:miter;stroke-miterlimit:4;stroke-dasharray:none;stroke-opacity:1"
                       d="m 104.478,310.77402 h 5.75901" /><text
                       id="text156"
                       style="font-variant:normal;font-weight:normal;font-size:13.43999958px;font-family:Symbol;-inkscape-font-specification:Symbol;writing-mode:lr-tb;fill:#000000;fill-opacity:1;fill-rule:nonzero;stroke:none"
                       transform="matrix(1,0,0,-1,119.4813,306.40329)"><tspan
                         id="tspan154"
                         y="0"
                         x="0">!</tspan></text>
<path
                       inkscape:connector-curvature="0"
                       id="path158"
                       style="fill:#000000;fill-opacity:1;fill-rule:nonzero;stroke:none"
                       d="m 138.453,312.71802 c 0.308,-1.33402 0.308,-2.55301 0,-3.887 -4.209,0.97098 -4.209,0.97098 -8.418,1.943 l 8.418,1.944" /><path
                       inkscape:connector-curvature="0"
                       id="path160"
                       style="fill:none;stroke:#000000;stroke-width:0.95999998;stroke-linecap:square;stroke-linejoin:miter;stroke-miterlimit:4;stroke-dasharray:none;stroke-opacity:1"
                       d="m 144.19501,310.77402 h -5.76" /><path
                       inkscape:connector-curvature="0"
                       id="path162"
                       style="fill:#e4e4e4;fill-opacity:1;fill-rule:nonzero;stroke:none"
                       d="m 124.32301,245.37 h 15 c 4.213,0 7.68,-3.46799 7.68,-7.68099 v -1.44 c 0,-4.21199 -3.467,-7.67999 -7.68,-7.67999 h -30 c -4.21301,0 -7.68,3.468 -7.68,7.67999 v 1.44 c 0,4.213 3.46699,7.68099 7.68,7.68099 h 15" /><path
                       inkscape:connector-curvature="0"
                       id="path164"
                       style="fill:none;stroke:#000000;stroke-width:0.95999998;stroke-linecap:butt;stroke-linejoin:miter;stroke-miterlimit:4;stroke-dasharray:none;stroke-opacity:1"
                       d="m 124.32301,245.37 h 15 c 4.213,0 7.68,-3.46799 7.68,-7.68099 v -1.44 c 0,-4.21199 -3.467,-7.67999 -7.68,-7.67999 h -30 c -4.21301,0 -7.68,3.468 -7.68,7.67999 v 1.44 c 0,4.213 3.46699,7.68099 7.68,7.68099 z" /><path
                       inkscape:connector-curvature="0"
                       id="path166"
                       style="fill:#000000;fill-opacity:1;fill-rule:nonzero;stroke:none"
                       d="m 110.219,235.12999 c -0.308,1.33401 -0.308,2.55302 0,3.88702 4.20901,-0.972 4.20901,-0.972 8.41801,-1.944 l -8.41801,-1.94302" /><path
                       inkscape:connector-curvature="0"
                       id="path168"
                       style="fill:none;stroke:#000000;stroke-width:0.95999998;stroke-linecap:square;stroke-linejoin:miter;stroke-miterlimit:4;stroke-dasharray:none;stroke-opacity:1"
                       d="m 104.478,237.07301 h 5.75901" /><text
                       id="text172"
                       style="font-variant:normal;font-weight:normal;font-size:13.43999958px;font-family:Symbol;-inkscape-font-specification:Symbol;writing-mode:lr-tb;fill:#000000;fill-opacity:1;fill-rule:nonzero;stroke:none"
                       transform="matrix(1,0,0,-1,119.4813,232.7233)"><tspan
                         id="tspan170"
                         y="0"
                         x="0">!</tspan></text>
<path
                       inkscape:connector-curvature="0"
                       id="path174"
                       style="fill:#000000;fill-opacity:1;fill-rule:nonzero;stroke:none"
                       d="m 138.453,239.01701 c 0.308,-1.334 0.308,-2.55301 0,-3.88702 -4.209,0.97202 -4.209,0.97202 -8.418,1.94302 l 8.418,1.944" /><path
                       inkscape:connector-curvature="0"
                       id="path176"
                       style="fill:none;stroke:#000000;stroke-width:0.95999998;stroke-linecap:square;stroke-linejoin:miter;stroke-miterlimit:4;stroke-dasharray:none;stroke-opacity:1"
                       d="m 144.19501,237.07301 h -5.76" /><path
                       inkscape:connector-curvature="0"
                       id="path178"
                       style="fill:#fffc00;fill-opacity:1;fill-rule:nonzero;stroke:none"
                       d="M 240.35901,125.53801 H 297.052 V 68.845009 h -56.69299 z" /><path
                       inkscape:connector-curvature="0"
                       id="path180"
                       style="fill:none;stroke:#000000;stroke-width:0.95999998;stroke-linecap:butt;stroke-linejoin:miter;stroke-miterlimit:4;stroke-dasharray:none;stroke-opacity:1"
                       d="M 240.35901,125.53801 H 297.052 V 68.845009 h -56.69299 z" /><path
                       inkscape:connector-curvature="0"
                       id="path182"
                       style="fill:none;stroke:#000000;stroke-width:0.95999998;stroke-linecap:square;stroke-linejoin:miter;stroke-miterlimit:4;stroke-dasharray:none;stroke-opacity:1"
                       d="M 254.53201,125.53801 V 68.898003 m 14.17401,56.640007 V 68.898003 m 14.17301,56.640007 V 68.898003 m 14.11999,42.467007 h -56.64001 m 56.64001,-14.174008 h -56.64001 m 56.64001,-14.172997 h -56.64001" /><path
                       inkscape:connector-curvature="0"
                       id="path184"
                       style="fill:#ffffff;fill-opacity:1;fill-rule:nonzero;stroke:none"
                       d="m 254.53201,111.36501 h 28.32001 v -28.32 h -28.32001 z" /><path
                       inkscape:connector-curvature="0"
                       id="path186"
                       style="fill:none;stroke:#000000;stroke-width:0.95999998;stroke-linecap:butt;stroke-linejoin:miter;stroke-miterlimit:4;stroke-dasharray:none;stroke-opacity:1"
                       d="m 254.53201,111.36501 h 28.32001 V 83.045006 h -28.32001 z" /><path
                       inkscape:connector-curvature="0"
                       id="path188"
                       style="fill:#ff5bff;fill-opacity:1;fill-rule:nonzero;stroke:none"
                       d="M 240.35901,60.492004 H 297.052 V 3.799003 h -56.69299 z" /><path
                       inkscape:connector-curvature="0"
                       id="path190"
                       style="fill:none;stroke:#000000;stroke-width:0.95999998;stroke-linecap:butt;stroke-linejoin:miter;stroke-miterlimit:4;stroke-dasharray:none;stroke-opacity:1"
                       d="M 240.35901,60.492004 H 297.052 V 3.7990036 h -56.69299 z" /><text
                       id="text194"
                       style="font-variant:normal;font-weight:bold;font-size:17.27999878px;font-family:Helvetica;-inkscape-font-specification:Helvetica-Bold;writing-mode:lr-tb;fill:#000000;fill-opacity:1;fill-rule:nonzero;stroke:none"
                       transform="matrix(1,0,0,-1,310.04129,107.6832)"><tspan
                         id="tspan192"
                         sodipodi:role="line"
                         y="0"
                         x="0 11.52576 16.329599 25.937279 35.544956 41.299198 48.021118 58.579197 73.941116 83.548798 94.106873 104.66496 114.27264 120.02687 124.83071">Electromagnetic</tspan></text>
<text
                       id="text198"
                       style="font-variant:normal;font-weight:bold;font-size:17.27999878px;font-family:Helvetica;-inkscape-font-specification:Helvetica-Bold;writing-mode:lr-tb;fill:#000000;fill-opacity:1;fill-rule:nonzero;stroke:none"
                       transform="matrix(1,0,0,-1,310.04129,90.403198)"><tspan
                         id="tspan196"
                         sodipodi:role="line"
                         y="0"
                         x="0 4.8038397 14.411519 24.969599 29.773438 39.381119 45.135357 49.939198 60.497276 71.055359 75.859192 82.581116 87.384956 97.943031">isolation ring</tspan></text>
<text
                       id="text202"
                       style="font-variant:normal;font-weight:bold;font-size:17.27999878px;font-family:Helvetica;-inkscape-font-specification:Helvetica-Bold;writing-mode:lr-tb;fill:#000000;fill-opacity:1;fill-rule:nonzero;stroke:none"
                       transform="matrix(1,0,0,-1,310.04129,43.363586)"><tspan
                         id="tspan200"
                         sodipodi:role="line"
                         y="0"
                         x="0 12.476159 22.083839 32.641918 39.363838 49.921917 60.479996 65.283836 74.891518 79.695358 84.499199 95.057274 105.61536 115.22303 121.94495 126.74879 136.35648 146.91455 153.63647">Hadronic inner core</tspan></text>
<text
                       id="text206"
                       style="font-variant:normal;font-weight:bold;font-size:17.27999878px;font-family:Helvetica;-inkscape-font-specification:Helvetica-Bold;writing-mode:lr-tb;fill:#000000;fill-opacity:1;fill-rule:nonzero;stroke:none"
                       transform="matrix(1,0,0,-1,310.04129,26.083588)"><tspan
                         id="tspan204"
                         sodipodi:role="line"
                         y="0"
                         x="0 9.6076794 20.165758 30.723839 35.527679 40.331516 49.939198 60.497276 65.301117 74.908798 80.663033 85.466873 96.024956 106.58303 111.38687 118.1088 122.91264 133.47072">and isolation ring</tspan></text>
<text
                       id="text210"
                       style="font-variant:normal;font-weight:bold;font-size:17.27999878px;font-family:Helvetica;-inkscape-font-specification:Helvetica-Bold;writing-mode:lr-tb;fill:#000000;fill-opacity:1;fill-rule:nonzero;stroke:none"
                       transform="matrix(1,0,0,-1,333.5611,178.96318)"><tspan
                         id="tspan208"
                         sodipodi:role="line"
                         y="0"
                         x="0 11.52576 16.329599 25.937279 35.544956 41.299198 48.021118 58.579197 73.941116 83.548798 94.106873 104.66496 114.27264 120.02687 124.83071">Electromagnetic</tspan></text>
<text
                       id="text214"
                       style="font-variant:normal;font-weight:bold;font-size:17.27999878px;font-family:Helvetica;-inkscape-font-specification:Helvetica-Bold;writing-mode:lr-tb;fill:#000000;fill-opacity:1;fill-rule:nonzero;stroke:none"
                       transform="matrix(1,0,0,-1,354.20032,161.68318)"><tspan
                         id="tspan212"
                         sodipodi:role="line"
                         y="0"
                         x="0 9.6076794 19.215359 24.019199 34.577278 41.299198 46.103039 61.464958 71.072639 76.826874 86.434555">calorimeter</tspan></text>
<text
                       id="text218"
                       style="font-variant:normal;font-weight:bold;font-size:17.27999878px;font-family:Helvetica;-inkscape-font-specification:Helvetica-Bold;writing-mode:lr-tb;fill:#000000;fill-opacity:1;fill-rule:nonzero;stroke:none"
                       transform="matrix(1,0,0,-1,363.32071,235.60356)"><tspan
                         id="tspan216"
                         sodipodi:role="line"
                         y="0"
                         x="0 12.476159 22.083839 32.641918 39.363838 49.921917 60.479996 65.283836">Hadronic</tspan></text>
<text
                       id="text222"
                       style="font-variant:normal;font-weight:bold;font-size:17.27999878px;font-family:Helvetica;-inkscape-font-specification:Helvetica-Bold;writing-mode:lr-tb;fill:#000000;fill-opacity:1;fill-rule:nonzero;stroke:none"
                       transform="matrix(1,0,0,-1,354.20032,218.32356)"><tspan
                         id="tspan220"
                         sodipodi:role="line"
                         y="0"
                         x="0 9.6076794 19.215359 24.019199 34.577278 41.299198 46.103039 61.464958 71.072639 76.826874 86.434555">calorimeter</tspan></text>
<path
                       inkscape:connector-curvature="0"
                       id="path224"
                       style="fill:#000000;fill-opacity:1;fill-rule:nonzero;stroke:none"
                       d="m 317.121,274.483 13.87601,-6.52301 -8.349,1.64801 2.79401,-8.039 -8.366,12.88202" /><path
                       inkscape:connector-curvature="0"
                       id="path226"
                       style="fill:none;stroke:#000000;stroke-width:0.95999998;stroke-linecap:square;stroke-linejoin:miter;stroke-miterlimit:4;stroke-dasharray:none;stroke-opacity:1"
                       d="m 322.65503,269.61603 36.94098,-32.01502" /><path
                       inkscape:connector-curvature="0"
                       id="path228"
                       style="fill:#000000;fill-opacity:1;fill-rule:nonzero;stroke:none"
                       d="m 260.48102,212.08301 15.20401,-1.33301 -8.41001,-1.30699 5.37497,-6.59799 -12.26696,9.24398" /><path
                       inkscape:connector-curvature="0"
                       id="path230"
                       style="fill:none;stroke:#000000;stroke-width:0.95999998;stroke-linecap:square;stroke-linejoin:miter;stroke-miterlimit:4;stroke-dasharray:none;stroke-opacity:1"
                       d="m 267.29602,209.49701 61.11899,-22.92" /><text
                       id="text234"
                       style="font-variant:normal;font-weight:bold;font-size:17.27999878px;font-family:Helvetica;-inkscape-font-specification:Helvetica-Bold;writing-mode:lr-tb;fill:#000000;fill-opacity:1;fill-rule:nonzero;stroke:none"
                       transform="matrix(1,0,0,-1,-0.2784,138.40329)"><tspan
                         id="tspan232"
                         sodipodi:role="line"
                         y="0"
                         x="0 10.55808 17.279999 22.083839 32.641918 43.199997 52.807678 59.529598 64.333435 70.087677 80.645752 94.089592 103.69727 110.4192 120.02687">Trigger towers</tspan></text>
<text
                       id="text238"
                       style="font-variant:normal;font-weight:normal;font-size:17.84931564px;font-family:Symbol;-inkscape-font-specification:Symbol;writing-mode:lr-tb;fill:#000000;fill-opacity:1;fill-rule:nonzero;stroke:none"
                       transform="matrix(0.96810433,0,-0.25054742,-0.96810433,124.5163,138.40329)"><tspan
                         id="tspan236"
                         y="0"
                         x="0">(</tspan></text>
<text
                       id="text242"
                       style="font-variant:normal;font-weight:normal;font-size:18.07065964px;font-family:Symbol;-inkscape-font-specification:Symbol;writing-mode:lr-tb;fill:#000000;fill-opacity:1;fill-rule:nonzero;stroke:none"
                       transform="matrix(0.96810515,0,-0.25054424,-0.95624615,130.2664,138.40329)"><tspan
                         id="tspan240"
                         y="0"
                         x="0">&quot;</tspan></text>
<text
                       id="text246"
                       style="font-variant:normal;font-weight:normal;font-size:18.07065964px;font-family:Symbol;-inkscape-font-specification:Symbol;writing-mode:lr-tb;fill:#000000;fill-opacity:1;fill-rule:nonzero;stroke:none"
                       transform="matrix(0.96810515,0,-0.25054424,-0.95624615,140.94843,138.40329)"><tspan
                         id="tspan244"
                         y="0"
                         x="0">#</tspan></text>
<text
                       id="text250"
                       style="font-variant:normal;font-weight:normal;font-size:18.54364586px;font-family:Symbol;-inkscape-font-specification:Symbol;writing-mode:lr-tb;fill:#000000;fill-opacity:1;fill-rule:nonzero;stroke:none"
                       transform="matrix(0.9681052,0,-0.25054406,-0.93185553,155.8712,138.40329)"><tspan
                         id="tspan248"
                         sodipodi:role="line"
                         y="0"
                         x="0 10.180462">×</tspan></text>
<text
                       id="text254"
                       style="font-variant:normal;font-weight:normal;font-size:18.54364586px;font-family:Symbol;-inkscape-font-specification:Symbol;writing-mode:lr-tb;fill:#000000;fill-opacity:1;fill-rule:nonzero;stroke:none"
                       transform="matrix(0.9681052,0,-0.25054406,-0.93185553,170.21141,138.40329)"><tspan
                         id="tspan252"
                         y="0"
                         x="0">&quot;</tspan></text>
<text
                       id="text258"
                       style="font-variant:normal;font-weight:normal;font-size:18.54364586px;font-family:Symbol;-inkscape-font-specification:Symbol;writing-mode:lr-tb;fill:#000000;fill-opacity:1;fill-rule:nonzero;stroke:none"
                       transform="matrix(0.9681052,0,-0.25054406,-0.93185553,181.18021,138.40329)"><tspan
                         id="tspan256"
                         y="0"
                         x="0">$</tspan></text>
<text
                       id="text262"
                       style="font-variant:normal;font-weight:normal;font-size:18.54364586px;font-family:Symbol;-inkscape-font-specification:Symbol;writing-mode:lr-tb;fill:#000000;fill-opacity:1;fill-rule:nonzero;stroke:none"
                       transform="matrix(0.9681052,0,-0.25054406,-0.93185553,194.91902,138.40329)"><tspan
                         id="tspan260"
                         sodipodi:role="line"
                         y="0"
                         x="0 10.180462">=</tspan></text>
<text
                       id="text266"
                       style="font-variant:normal;font-weight:normal;font-size:18.07065964px;font-family:Symbol;-inkscape-font-specification:Symbol;writing-mode:lr-tb;fill:#000000;fill-opacity:1;fill-rule:nonzero;stroke:none"
                       transform="matrix(0.96810515,0,-0.25054424,-0.95624615,209.26019,138.40329)"><tspan
                         id="tspan264"
                         sodipodi:role="line"
                         y="0"
                         x="0 9.0353298 13.552995 22.588326">0.1</tspan></text>
<text
                       id="text270"
                       style="font-variant:normal;font-weight:normal;font-size:18.54364586px;font-family:Symbol;-inkscape-font-specification:Symbol;writing-mode:lr-tb;fill:#000000;fill-opacity:1;fill-rule:nonzero;stroke:none"
                       transform="matrix(0.9681052,0,-0.25054406,-0.93185553,235.4838,138.40329)"><tspan
                         id="tspan268"
                         sodipodi:role="line"
                         y="0"
                         x="0 10.180462">×</tspan></text>
<text
                       id="text274"
                       style="font-variant:normal;font-weight:normal;font-size:18.07065964px;font-family:Symbol;-inkscape-font-specification:Symbol;writing-mode:lr-tb;fill:#000000;fill-opacity:1;fill-rule:nonzero;stroke:none"
                       transform="matrix(0.96810515,0,-0.25054424,-0.95624615,249.82489,138.40329)"><tspan
                         id="tspan272"
                         sodipodi:role="line"
                         y="0"
                         x="0 9.0353298 13.552995 22.588326">0.1)</tspan></text>
<path
                       inkscape:connector-curvature="0"
                       id="path276"
                       style="fill:#000000;fill-opacity:1;fill-rule:nonzero;stroke:none"
                       d="m 166.88101,237.52301 -2.70801,-15.049 -0.569,8.49199 -7.04199,-4.78 10.27799,11.41501" /><path
                       inkscape:connector-curvature="0"
                       id="path278"
                       style="fill:none;stroke:#000000;stroke-width:0.95999998;stroke-linecap:square;stroke-linejoin:miter;stroke-miterlimit:4;stroke-dasharray:none;stroke-opacity:1"
                       d="M 163.62401,230.95502 124.32,149.72701" /><path
                       inkscape:connector-curvature="0"
                       id="path280"
                       style="fill:#a6fa00;fill-opacity:1;fill-rule:nonzero;stroke:none"
                       d="M 9.6810007,32.563 H 38.961 V 3.283001 H 9.6810007 Z" /><path
                       inkscape:connector-curvature="0"
                       id="path282"
                       style="fill:none;stroke:#000000;stroke-width:0.95999998;stroke-linecap:butt;stroke-linejoin:miter;stroke-miterlimit:4;stroke-dasharray:none;stroke-opacity:1"
                       d="M 10.161,32.083 V 3.7630002 M 24.321001,32.083 V 3.7630002 M 38.481003,32.083 V 3.7630002 M 10.161,32.083 H 38.481003 M 10.161,17.923 H 38.481003 M 10.161,3.7630002 h 28.320003" /><text
                       id="text286"
                       style="font-variant:normal;font-weight:bold;font-size:17.27999878px;font-family:Helvetica;-inkscape-font-specification:Helvetica-Bold;writing-mode:lr-tb;fill:#000000;fill-opacity:1;fill-rule:nonzero;stroke:none"
                       transform="matrix(1,0,0,-1,46.281498,21.7631)"><tspan
                         id="tspan284"
                         sodipodi:role="line"
                         y="0"
                         x="0 10.55808 21.116159 30.723839 40.331516 45.135357 49.939198 65.301117 74.908798 84.516472 89.320312 104.68224 115.24031 130.60223">Local maximum/</tspan></text>
<path
                       inkscape:connector-curvature="0"
                       id="path288"
                       style="fill:none;stroke:#000000;stroke-width:1.91999996;stroke-linecap:square;stroke-linejoin:miter;stroke-miterlimit:4;stroke-dasharray:none;stroke-opacity:1"
                       d="m 20.876001,26.272001 h 7.087 M 20.876001,10.088 h 7.087 m -11.656,11.428001 v -7.087 m 15.702002,7.087 v -7.087" /><path
                       inkscape:connector-curvature="0"
                       id="path290"
                       style="fill:#ff2800;fill-opacity:1;fill-rule:nonzero;stroke:none"
                       d="M 254.5,46.673 H 282 v -27.5 h -27.5 z" /><path
                       inkscape:connector-curvature="0"
                       id="path292"
                       style="fill:none;stroke:#000000;stroke-width:0.95999998;stroke-linecap:square;stroke-linejoin:miter;stroke-miterlimit:4;stroke-dasharray:none;stroke-opacity:1"
                       d="m 296.99902,46.319004 h -56.64001 m 14.173,14.173 V 3.8520002 M 268.70602,60.492004 V 3.8520002 M 282.87903,60.492004 V 3.8520002 M 296.99902,32.146 h -56.64001 m 56.64001,-14.174 h -56.64001" /><text
                       id="text296"
                       style="font-variant:normal;font-weight:bold;font-size:17.27999878px;font-family:Helvetica;-inkscape-font-specification:Helvetica-Bold;writing-mode:lr-tb;fill:#000000;fill-opacity:1;fill-rule:nonzero;stroke:none"
                       transform="matrix(1,0,0,-1,46.281498,3.7630999)"><tspan
                         id="tspan294"
                         sodipodi:role="line"
                         y="0"
                         x="0 12.476159 22.083839 32.641918 37.445759 48.003838 58.561916 64.316154 74.874237 80.628479 86.382713 91.186554 101.74464 107.49887 117.10655 123.82848 133.43616 143.04384">Region-of-interest</tspan></text>
</g></g></g></g></g></g></g></g></g></svg>